<svg width="130" height="130" viewBox="0 0 130 130" fill="none" xmlns="http://www.w3.org/2000/svg">
<path d="M65.0769 4.93115C51.7976 14.5237 44.9929 28.1839 38.7214 40.803C49.741 34.5569 64.5437 32.4495 70.9421 33.5159C54.7429 36.2073 43.5203 40.0667 34.2781 49.8421C33.7195 50.9847 33.2371 51.9495 32.6531 53.1683C61.9539 46.1097 66.7781 46.3128 96.3582 52.9905C93.4382 40.2698 87.0906 32.1448 77.1882 16.7149C87.8269 30.0628 108.698 52.8382 107.733 48.3948C101.919 21.7677 82.3171 5.96455 65.0769 4.93115ZM22.3445 58.7288C14.4734 60.6077 8.65894 63.1722 6.39917 65.5081C6.62769 68.4788 8.10034 71.1194 10.8425 73.6331C13.8386 76.3753 18.3582 78.8128 23.8679 80.7679C24.5509 80.9964 25.2365 81.2249 25.9246 81.4534C23.7917 78.6604 23.0808 74.7757 22.6238 71.0179C22.6238 67.1077 21.8621 62.512 22.3445 58.7288ZM107.657 58.7288C108.216 62.8421 107.809 67.4886 107.378 71.0179C106.921 74.7757 106.21 78.6604 104.077 81.4534C109.206 79.6761 115.401 76.9847 119.159 73.6331C121.901 71.1194 123.374 68.4788 123.602 65.5081C121.343 63.1722 115.553 60.6077 107.657 58.7288ZM37.9851 58.805L36.2078 62.3597H61.2937L59.5164 58.805H37.9851ZM70.4851 58.805L68.7078 62.3597H93.7937L92.0163 58.805H70.4851ZM30.2156 61.1917C29.0222 61.5218 27.8289 61.8519 26.6609 62.2327C26.9148 67.2854 26.8132 74.3186 29.6062 78.6097H30.2156V61.1917ZM99.7859 61.1917V78.6097H100.395C103.061 73.3538 103.264 67.9964 103.341 62.2327C102.173 61.8519 100.979 61.5218 99.7859 61.1917ZM34.8113 66.93C34.7351 71.7034 35.3191 76.9593 36.3855 81.0726C41.7429 77.4925 47.0242 74.5472 52.8132 74.5472C53.6257 74.5472 54.4382 74.5979 55.2 74.6487L56.5203 70.6624C55.0984 72.1097 53.2449 72.9222 50.6296 72.8206C44.2312 72.6175 42.0222 70.0023 41.1082 66.93H34.8113ZM62.5886 66.93L59.4402 76.3753L65.0007 83.3323L70.5613 76.3753L67.4128 66.93H62.5886ZM88.8933 66.93C87.9792 70.0023 85.7703 72.6175 79.3718 72.8206C76.7566 72.9222 74.9031 72.1097 73.4812 70.6624L74.8015 74.6487C75.5886 74.5726 76.4011 74.5472 77.1882 74.5472C82.9773 74.5472 88.2585 77.4925 93.616 81.0726C94.7332 75.969 95.3425 71.5257 95.1902 66.93H88.8933ZM52.8132 79.1175C47.7351 79.1175 41.8953 82.7991 35.3191 87.344C30.4441 90.721 25.1882 94.4788 19.2468 97.094C26.5085 98.6429 35.9539 98.3128 44.1804 96.4339C49.5886 95.2151 54.4636 93.3616 57.8152 91.2288C59.9734 89.8323 61.3953 88.4104 62.1316 87.0647L55.9871 79.3714C55.0476 79.219 53.9812 79.1175 52.8132 79.1175ZM77.1882 79.1175C76.0203 79.1175 74.9539 79.219 74.0144 79.3714L67.8699 87.0647C68.6062 88.4104 70.0281 89.8323 72.1863 91.2288C75.5378 93.3616 80.4128 95.2151 85.821 96.4339C94.0476 98.3128 103.493 98.6429 110.755 97.094C104.813 94.4788 99.5574 90.721 94.6824 87.344C88.1062 82.7991 82.2664 79.1175 77.1882 79.1175ZM65.0007 90.9749C63.8328 92.4222 62.3093 93.7171 60.5828 94.8597H69.4187C67.6921 93.7171 66.1687 92.4222 65.0007 90.9749ZM50.6042 99.43C48.8523 99.9886 47.0496 100.471 45.196 100.903C42.7839 101.461 40.321 101.893 37.8582 102.198C39.407 107.174 41.4382 112.227 43.698 116.975L43.7234 117.026C44.8152 115.325 46.1101 113.7 47.1511 111.998C46.5417 115.528 46.3132 119.082 46.5671 122.612C46.9988 123.45 47.4558 124.262 47.9128 125.075H82.0886C83.0027 123.475 83.866 121.85 84.7039 120.2C86.075 114.639 85.6941 109.332 86.075 103.899C86.8621 106.819 87.6238 109.739 88.2332 112.709C89.7058 109.256 91.0515 105.701 92.1433 102.198C89.6804 101.893 87.2175 101.461 84.8054 100.903C82.9519 100.471 81.1492 99.9886 79.3972 99.43H50.6042Z" fill="#4F5E93"/>
</svg>
