<svg width="62" height="62" viewBox="0 0 62 62" fill="none" xmlns="http://www.w3.org/2000/svg">
<path d="M31.0833 37C28.9306 37 27.1007 36.2465 25.5938 34.7396C24.0868 33.2326 23.3333 31.4028 23.3333 29.25V13.75C23.3333 11.5972 24.0868 9.76736 25.5938 8.26042C27.1007 6.75347 28.9306 6 31.0833 6C33.2361 6 35.066 6.75347 36.5729 8.26042C38.0799 9.76736 38.8333 11.5972 38.8333 13.75V29.25C38.8333 31.4028 38.0799 33.2326 36.5729 34.7396C35.066 36.2465 33.2361 37 31.0833 37ZM28.5 55.0833V47.1396C24.0222 46.5368 20.3194 44.5347 17.3917 41.1333C14.4639 37.7319 13 33.7708 13 29.25H18.1667C18.1667 32.8236 19.4265 35.8702 21.9461 38.3898C24.4657 40.9094 27.5114 42.1684 31.0833 42.1667C34.6552 42.1649 37.7018 40.9051 40.2232 38.3872C42.7445 35.8694 44.0034 32.8236 44 29.25H49.1667C49.1667 33.7708 47.7028 37.7319 44.775 41.1333C41.8472 44.5347 38.1444 46.5368 33.6667 47.1396V55.0833H28.5Z" fill="#F5F0E6"/>
</svg>
